<mxfile host="app.diagrams.net" agent="Mozilla/5.0 (Windows NT 10.0; Win64; x64) AppleWebKit/537.36 (KHTML, like Gecko) Chrome/132.0.0.0 YaBrowser/25.2.0.0 Safari/537.36" version="26.1.3">
  <diagram name="Страница — 1" id="UrVU0uqpv7EShTGXeRlz">
    <mxGraphModel dx="1434" dy="4067" grid="0" gridSize="10" guides="1" tooltips="1" connect="1" arrows="1" fold="1" page="1" pageScale="1" pageWidth="2339" pageHeight="3300" math="0" shadow="0">
      <root>
        <mxCell id="0" />
        <mxCell id="1" parent="0" />
        <mxCell id="V-TtBSGZ4l5DKQ4Nvbj8-2" value="&lt;div&gt;&amp;lt;&amp;lt;Entity&amp;gt;&amp;gt;&lt;/div&gt;&lt;div&gt;ПроизводственныйОтдел&lt;/div&gt;" style="swimlane;fontStyle=1;align=center;verticalAlign=top;childLayout=stackLayout;horizontal=1;startSize=50;horizontalStack=0;resizeParent=1;resizeParentMax=0;resizeLast=0;collapsible=1;marginBottom=0;whiteSpace=wrap;html=1;" vertex="1" parent="1">
          <mxGeometry x="948" y="179.52999999999997" width="260" height="90" as="geometry" />
        </mxCell>
        <mxCell id="V-TtBSGZ4l5DKQ4Nvbj8-3" value="+ разработатьПланВыполнения()" style="text;strokeColor=none;fillColor=none;align=left;verticalAlign=top;spacingLeft=4;spacingRight=4;overflow=hidden;rotatable=0;points=[[0,0.5],[1,0.5]];portConstraint=eastwest;whiteSpace=wrap;html=1;" vertex="1" parent="V-TtBSGZ4l5DKQ4Nvbj8-2">
          <mxGeometry y="50" width="260" height="40" as="geometry" />
        </mxCell>
        <mxCell id="V-TtBSGZ4l5DKQ4Nvbj8-4" value="&lt;div&gt;&amp;lt;&amp;lt;Entity&amp;gt;&amp;gt;&lt;/div&gt;&lt;div&gt;ТехническийОтдел&lt;/div&gt;" style="swimlane;fontStyle=1;align=center;verticalAlign=top;childLayout=stackLayout;horizontal=1;startSize=40;horizontalStack=0;resizeParent=1;resizeParentMax=0;resizeLast=0;collapsible=1;marginBottom=0;whiteSpace=wrap;html=1;" vertex="1" parent="1">
          <mxGeometry x="1268" y="179.52999999999997" width="260" height="82" as="geometry" />
        </mxCell>
        <mxCell id="V-TtBSGZ4l5DKQ4Nvbj8-5" value="+&amp;nbsp;выполнитьТехнические&lt;div&gt;РаботыПоПодключению()&lt;/div&gt;" style="text;strokeColor=none;fillColor=none;align=left;verticalAlign=top;spacingLeft=4;spacingRight=4;overflow=hidden;rotatable=0;points=[[0,0.5],[1,0.5]];portConstraint=eastwest;whiteSpace=wrap;html=1;" vertex="1" parent="V-TtBSGZ4l5DKQ4Nvbj8-4">
          <mxGeometry y="40" width="260" height="42" as="geometry" />
        </mxCell>
        <mxCell id="V-TtBSGZ4l5DKQ4Nvbj8-6" value="&lt;div&gt;&amp;lt;&amp;lt;Entity&amp;gt;&amp;gt;&lt;/div&gt;&lt;div&gt;ОтделЗакупок&lt;/div&gt;" style="swimlane;fontStyle=1;align=center;verticalAlign=top;childLayout=stackLayout;horizontal=1;startSize=40;horizontalStack=0;resizeParent=1;resizeParentMax=0;resizeLast=0;collapsible=1;marginBottom=0;whiteSpace=wrap;html=1;" vertex="1" parent="1">
          <mxGeometry x="1583.69" y="179.52999999999997" width="260" height="130" as="geometry" />
        </mxCell>
        <mxCell id="V-TtBSGZ4l5DKQ4Nvbj8-7" value="&lt;div&gt;- ресурсы: Resource[1..*]&lt;/div&gt;" style="text;strokeColor=none;fillColor=none;align=left;verticalAlign=top;spacingLeft=4;spacingRight=4;overflow=hidden;rotatable=0;points=[[0,0.5],[1,0.5]];portConstraint=eastwest;whiteSpace=wrap;html=1;" vertex="1" parent="V-TtBSGZ4l5DKQ4Nvbj8-6">
          <mxGeometry y="40" width="260" height="40" as="geometry" />
        </mxCell>
        <mxCell id="V-TtBSGZ4l5DKQ4Nvbj8-8" value="" style="line;strokeWidth=1;fillColor=none;align=left;verticalAlign=middle;spacingTop=-1;spacingLeft=3;spacingRight=3;rotatable=0;labelPosition=right;points=[];portConstraint=eastwest;strokeColor=inherit;" vertex="1" parent="V-TtBSGZ4l5DKQ4Nvbj8-6">
          <mxGeometry y="80" width="260" height="8" as="geometry" />
        </mxCell>
        <mxCell id="V-TtBSGZ4l5DKQ4Nvbj8-9" value="&lt;div&gt;+ закупитьРесурсы()&lt;/div&gt;&lt;div&gt;+ выделитьРесурсыНаОтдел()&lt;/div&gt;" style="text;strokeColor=none;fillColor=none;align=left;verticalAlign=top;spacingLeft=4;spacingRight=4;overflow=hidden;rotatable=0;points=[[0,0.5],[1,0.5]];portConstraint=eastwest;whiteSpace=wrap;html=1;" vertex="1" parent="V-TtBSGZ4l5DKQ4Nvbj8-6">
          <mxGeometry y="88" width="260" height="42" as="geometry" />
        </mxCell>
        <mxCell id="V-TtBSGZ4l5DKQ4Nvbj8-10" value="&lt;div&gt;&amp;lt;&amp;lt;Entity&amp;gt;&amp;gt;&lt;/div&gt;&lt;div&gt;ПлановыйОтдел&lt;/div&gt;" style="swimlane;fontStyle=1;align=center;verticalAlign=top;childLayout=stackLayout;horizontal=1;startSize=50;horizontalStack=0;resizeParent=1;resizeParentMax=0;resizeLast=0;collapsible=1;marginBottom=0;whiteSpace=wrap;html=1;" vertex="1" parent="1">
          <mxGeometry x="604.21" y="179" width="260" height="170" as="geometry" />
        </mxCell>
        <mxCell id="V-TtBSGZ4l5DKQ4Nvbj8-11" value="- бюджет: Currency[1]" style="text;strokeColor=none;fillColor=none;align=left;verticalAlign=top;spacingLeft=4;spacingRight=4;overflow=hidden;rotatable=0;points=[[0,0.5],[1,0.5]];portConstraint=eastwest;whiteSpace=wrap;html=1;" vertex="1" parent="V-TtBSGZ4l5DKQ4Nvbj8-10">
          <mxGeometry y="50" width="260" height="40" as="geometry" />
        </mxCell>
        <mxCell id="V-TtBSGZ4l5DKQ4Nvbj8-12" value="" style="line;strokeWidth=1;fillColor=none;align=left;verticalAlign=middle;spacingTop=-1;spacingLeft=3;spacingRight=3;rotatable=0;labelPosition=right;points=[];portConstraint=eastwest;strokeColor=inherit;" vertex="1" parent="V-TtBSGZ4l5DKQ4Nvbj8-10">
          <mxGeometry y="90" width="260" height="8" as="geometry" />
        </mxCell>
        <mxCell id="V-TtBSGZ4l5DKQ4Nvbj8-13" value="&lt;div&gt;&lt;div&gt;+ прогнозироватьПрибыльИЗатраты()&lt;/div&gt;&lt;/div&gt;&lt;div&gt;+&amp;nbsp;&lt;span style=&quot;background-color: initial;&quot;&gt;утвердитьТарифы()&lt;/span&gt;&lt;/div&gt;" style="text;strokeColor=none;fillColor=none;align=left;verticalAlign=top;spacingLeft=4;spacingRight=4;overflow=hidden;rotatable=0;points=[[0,0.5],[1,0.5]];portConstraint=eastwest;whiteSpace=wrap;html=1;" vertex="1" parent="V-TtBSGZ4l5DKQ4Nvbj8-10">
          <mxGeometry y="98" width="260" height="72" as="geometry" />
        </mxCell>
        <mxCell id="V-TtBSGZ4l5DKQ4Nvbj8-14" value="&lt;div&gt;&amp;lt;&amp;lt;Entity&amp;gt;&amp;gt;&lt;/div&gt;&lt;div&gt;КоммерческийОтдел&lt;/div&gt;" style="swimlane;fontStyle=1;align=center;verticalAlign=top;childLayout=stackLayout;horizontal=1;startSize=50;horizontalStack=0;resizeParent=1;resizeParentMax=0;resizeLast=0;collapsible=1;marginBottom=0;whiteSpace=wrap;html=1;" vertex="1" parent="1">
          <mxGeometry x="1908" y="179" width="260" height="150" as="geometry" />
        </mxCell>
        <mxCell id="V-TtBSGZ4l5DKQ4Nvbj8-15" value="- агенты: &lt;code&gt;List&amp;lt;String&amp;gt;&lt;/code&gt;" style="text;strokeColor=default;fillColor=none;align=left;verticalAlign=top;spacingLeft=4;spacingRight=4;overflow=hidden;rotatable=0;points=[[0,0.5],[1,0.5]];portConstraint=eastwest;whiteSpace=wrap;html=1;" vertex="1" parent="V-TtBSGZ4l5DKQ4Nvbj8-14">
          <mxGeometry y="50" width="260" height="40" as="geometry" />
        </mxCell>
        <mxCell id="V-TtBSGZ4l5DKQ4Nvbj8-16" value="+ заинтересоватьКлиента()&lt;div&gt;+&amp;nbsp;&lt;span style=&quot;background-color: initial;&quot;&gt;создатьДоговор()&lt;/span&gt;&lt;br&gt;&lt;/div&gt;&lt;div&gt;+ получитьПодтверждениеДоговора()&lt;br&gt;&lt;/div&gt;" style="text;strokeColor=none;fillColor=none;align=left;verticalAlign=top;spacingLeft=4;spacingRight=4;overflow=hidden;rotatable=0;points=[[0,0.5],[1,0.5]];portConstraint=eastwest;whiteSpace=wrap;html=1;" vertex="1" parent="V-TtBSGZ4l5DKQ4Nvbj8-14">
          <mxGeometry y="90" width="260" height="60" as="geometry" />
        </mxCell>
        <mxCell id="V-TtBSGZ4l5DKQ4Nvbj8-17" value="&lt;div&gt;&amp;lt;&amp;lt;Entity&amp;gt;&amp;gt;&lt;/div&gt;&lt;div&gt;ОтделОбслуживания&lt;/div&gt;" style="swimlane;fontStyle=1;align=center;verticalAlign=top;childLayout=stackLayout;horizontal=1;startSize=50;horizontalStack=0;resizeParent=1;resizeParentMax=0;resizeLast=0;collapsible=1;marginBottom=0;whiteSpace=wrap;html=1;" vertex="1" parent="1">
          <mxGeometry x="2293" y="179.52999999999997" width="290" height="102" as="geometry" />
        </mxCell>
        <mxCell id="V-TtBSGZ4l5DKQ4Nvbj8-18" value="+ зарегистрироватьКлиента()&lt;div&gt;+&amp;nbsp;&lt;span style=&quot;background-color: initial;&quot;&gt;уведомитьКлиентаОЗавершенииУслуги()&lt;/span&gt;&lt;br&gt;&lt;/div&gt;&lt;div&gt;&lt;br&gt;&lt;/div&gt;" style="text;strokeColor=none;fillColor=none;align=left;verticalAlign=top;spacingLeft=4;spacingRight=4;overflow=hidden;rotatable=0;points=[[0,0.5],[1,0.5]];portConstraint=eastwest;whiteSpace=wrap;html=1;" vertex="1" parent="V-TtBSGZ4l5DKQ4Nvbj8-17">
          <mxGeometry y="50" width="290" height="52" as="geometry" />
        </mxCell>
        <mxCell id="V-TtBSGZ4l5DKQ4Nvbj8-19" value="&lt;div&gt;&amp;lt;&amp;lt;Entity&amp;gt;&amp;gt;&lt;/div&gt;&lt;div&gt;ОтделПерспективногоРазвития&lt;/div&gt;" style="swimlane;fontStyle=1;align=center;verticalAlign=top;childLayout=stackLayout;horizontal=1;startSize=50;horizontalStack=0;resizeParent=1;resizeParentMax=0;resizeLast=0;collapsible=1;marginBottom=0;whiteSpace=wrap;html=1;" vertex="1" parent="1">
          <mxGeometry x="288" y="179" width="260" height="92" as="geometry" />
        </mxCell>
        <mxCell id="V-TtBSGZ4l5DKQ4Nvbj8-20" value="&lt;div&gt;+&amp;nbsp;&lt;span style=&quot;background-color: initial;&quot;&gt;анализироватьРынок()&lt;/span&gt;&lt;br&gt;&lt;/div&gt;&lt;div&gt;&lt;span style=&quot;background-color: initial;&quot;&gt;+&amp;nbsp;&lt;/span&gt;&lt;span style=&quot;background-color: initial;&quot;&gt;предоставитьДанныеОСпросеИРынке()&lt;/span&gt;&lt;/div&gt;&lt;div&gt;&lt;br&gt;&lt;/div&gt;" style="text;strokeColor=none;fillColor=none;align=left;verticalAlign=top;spacingLeft=4;spacingRight=4;overflow=hidden;rotatable=0;points=[[0,0.5],[1,0.5]];portConstraint=eastwest;whiteSpace=wrap;html=1;" vertex="1" parent="V-TtBSGZ4l5DKQ4Nvbj8-19">
          <mxGeometry y="50" width="260" height="42" as="geometry" />
        </mxCell>
        <mxCell id="V-TtBSGZ4l5DKQ4Nvbj8-21" value="&lt;div&gt;&amp;lt;&amp;lt;Entity&amp;gt;&amp;gt;&lt;/div&gt;Клиент" style="swimlane;fontStyle=1;align=center;verticalAlign=top;childLayout=stackLayout;horizontal=1;startSize=40;horizontalStack=0;resizeParent=1;resizeParentMax=0;resizeLast=0;collapsible=1;marginBottom=0;whiteSpace=wrap;html=1;" vertex="1" parent="1">
          <mxGeometry x="2308" y="449" width="260" height="140" as="geometry" />
        </mxCell>
        <mxCell id="V-TtBSGZ4l5DKQ4Nvbj8-22" value="&lt;div&gt;- ФИО: String[1]&lt;br&gt;&lt;/div&gt;&lt;div&gt;- баланс: Currency[1]&lt;/div&gt;" style="text;strokeColor=none;fillColor=none;align=left;verticalAlign=top;spacingLeft=4;spacingRight=4;overflow=hidden;rotatable=0;points=[[0,0.5],[1,0.5]];portConstraint=eastwest;whiteSpace=wrap;html=1;" vertex="1" parent="V-TtBSGZ4l5DKQ4Nvbj8-21">
          <mxGeometry y="40" width="260" height="40" as="geometry" />
        </mxCell>
        <mxCell id="V-TtBSGZ4l5DKQ4Nvbj8-23" value="" style="line;strokeWidth=1;fillColor=none;align=left;verticalAlign=middle;spacingTop=-1;spacingLeft=3;spacingRight=3;rotatable=0;labelPosition=right;points=[];portConstraint=eastwest;strokeColor=inherit;" vertex="1" parent="V-TtBSGZ4l5DKQ4Nvbj8-21">
          <mxGeometry y="80" width="260" height="8" as="geometry" />
        </mxCell>
        <mxCell id="V-TtBSGZ4l5DKQ4Nvbj8-24" value="+ пополнитьБаланс(сумма: Currency)&lt;div&gt;+ &lt;span style=&quot;background-color: initial;&quot;&gt;запроситьУслугу(услуга: Услуга)&lt;/span&gt;&lt;/div&gt;" style="text;strokeColor=none;fillColor=none;align=left;verticalAlign=top;spacingLeft=4;spacingRight=4;overflow=hidden;rotatable=0;points=[[0,0.5],[1,0.5]];portConstraint=eastwest;whiteSpace=wrap;html=1;" vertex="1" parent="V-TtBSGZ4l5DKQ4Nvbj8-21">
          <mxGeometry y="88" width="260" height="52" as="geometry" />
        </mxCell>
        <mxCell id="V-TtBSGZ4l5DKQ4Nvbj8-25" value="&lt;div&gt;&amp;lt;&amp;lt;Boundary&amp;gt;&amp;gt;&lt;/div&gt;&lt;div&gt;Договор&lt;/div&gt;" style="swimlane;fontStyle=1;align=center;verticalAlign=top;childLayout=stackLayout;horizontal=1;startSize=40;horizontalStack=0;resizeParent=1;resizeParentMax=0;resizeLast=0;collapsible=1;marginBottom=0;whiteSpace=wrap;html=1;" vertex="1" parent="1">
          <mxGeometry x="1908" y="439" width="260" height="150" as="geometry" />
        </mxCell>
        <mxCell id="V-TtBSGZ4l5DKQ4Nvbj8-26" value="&lt;div&gt;- датаЗаключения: Date[1]&lt;/div&gt;&lt;div&gt;- абонент: Клиент[1]&lt;br&gt;&lt;/div&gt;&lt;div&gt;- услуги: List&amp;lt;Услуга&amp;gt;[1..*]&lt;/div&gt;" style="text;strokeColor=none;fillColor=none;align=left;verticalAlign=top;spacingLeft=4;spacingRight=4;overflow=hidden;rotatable=0;points=[[0,0.5],[1,0.5]];portConstraint=eastwest;whiteSpace=wrap;html=1;" vertex="1" parent="V-TtBSGZ4l5DKQ4Nvbj8-25">
          <mxGeometry y="40" width="260" height="60" as="geometry" />
        </mxCell>
        <mxCell id="V-TtBSGZ4l5DKQ4Nvbj8-27" value="" style="line;strokeWidth=1;fillColor=none;align=left;verticalAlign=middle;spacingTop=-1;spacingLeft=3;spacingRight=3;rotatable=0;labelPosition=right;points=[];portConstraint=eastwest;strokeColor=inherit;" vertex="1" parent="V-TtBSGZ4l5DKQ4Nvbj8-25">
          <mxGeometry y="100" width="260" height="8" as="geometry" />
        </mxCell>
        <mxCell id="V-TtBSGZ4l5DKQ4Nvbj8-28" value="+ зафиксироватьСуммуОплаты()&lt;div&gt;&lt;br&gt;&lt;/div&gt;" style="text;strokeColor=none;fillColor=none;align=left;verticalAlign=top;spacingLeft=4;spacingRight=4;overflow=hidden;rotatable=0;points=[[0,0.5],[1,0.5]];portConstraint=eastwest;whiteSpace=wrap;html=1;" vertex="1" parent="V-TtBSGZ4l5DKQ4Nvbj8-25">
          <mxGeometry y="108" width="260" height="42" as="geometry" />
        </mxCell>
        <mxCell id="V-TtBSGZ4l5DKQ4Nvbj8-29" value="&lt;div&gt;&amp;lt;&amp;lt;Boundary&amp;gt;&amp;gt;&lt;/div&gt;&lt;div&gt;Услуга&lt;/div&gt;" style="swimlane;fontStyle=1;align=center;verticalAlign=top;childLayout=stackLayout;horizontal=1;startSize=40;horizontalStack=0;resizeParent=1;resizeParentMax=0;resizeLast=0;collapsible=1;marginBottom=0;whiteSpace=wrap;html=1;" vertex="1" parent="1">
          <mxGeometry x="948" y="439" width="260" height="130" as="geometry" />
        </mxCell>
        <mxCell id="V-TtBSGZ4l5DKQ4Nvbj8-30" value="- тариф: Тарифный план[1]&lt;div&gt;&lt;font face=&quot;Helvetica&quot;&gt;-&amp;nbsp;&lt;code&gt;название&lt;/code&gt;: &lt;code&gt;String[1]&lt;/code&gt;&lt;br&gt;&lt;/font&gt;&lt;div&gt;&lt;span style=&quot;background-color: initial;&quot;&gt;&lt;br&gt;&lt;/span&gt;&lt;/div&gt;&lt;/div&gt;" style="text;strokeColor=none;fillColor=none;align=left;verticalAlign=top;spacingLeft=4;spacingRight=4;overflow=hidden;rotatable=0;points=[[0,0.5],[1,0.5]];portConstraint=eastwest;whiteSpace=wrap;html=1;" vertex="1" parent="V-TtBSGZ4l5DKQ4Nvbj8-29">
          <mxGeometry y="40" width="260" height="40" as="geometry" />
        </mxCell>
        <mxCell id="V-TtBSGZ4l5DKQ4Nvbj8-31" value="" style="line;strokeWidth=1;fillColor=none;align=left;verticalAlign=middle;spacingTop=-1;spacingLeft=3;spacingRight=3;rotatable=0;labelPosition=right;points=[];portConstraint=eastwest;strokeColor=inherit;" vertex="1" parent="V-TtBSGZ4l5DKQ4Nvbj8-29">
          <mxGeometry y="80" width="260" height="8" as="geometry" />
        </mxCell>
        <mxCell id="V-TtBSGZ4l5DKQ4Nvbj8-32" value="+ активировать()&lt;div&gt;+ отключить()&lt;/div&gt;" style="text;strokeColor=none;fillColor=none;align=left;verticalAlign=top;spacingLeft=4;spacingRight=4;overflow=hidden;rotatable=0;points=[[0,0.5],[1,0.5]];portConstraint=eastwest;whiteSpace=wrap;html=1;" vertex="1" parent="V-TtBSGZ4l5DKQ4Nvbj8-29">
          <mxGeometry y="88" width="260" height="42" as="geometry" />
        </mxCell>
        <mxCell id="V-TtBSGZ4l5DKQ4Nvbj8-33" value="" style="resizable=0;html=1;align=right;verticalAlign=bottom;labelBackgroundColor=none;" connectable="0" vertex="1" parent="1">
          <mxGeometry x="864.21" y="548" as="geometry" />
        </mxCell>
        <mxCell id="V-TtBSGZ4l5DKQ4Nvbj8-34" value="" style="resizable=0;html=1;align=right;verticalAlign=bottom;labelBackgroundColor=none;" connectable="0" vertex="1" parent="1">
          <mxGeometry x="1713.6917222131474" y="610.0543328057513" as="geometry" />
        </mxCell>
        <mxCell id="V-TtBSGZ4l5DKQ4Nvbj8-35" value="" style="resizable=0;html=1;align=right;verticalAlign=bottom;labelBackgroundColor=none;" connectable="0" vertex="1" parent="1">
          <mxGeometry x="734.2138117209747" y="493.47093323961485" as="geometry" />
        </mxCell>
        <mxCell id="V-TtBSGZ4l5DKQ4Nvbj8-36" value="&lt;div&gt;&amp;lt;&amp;lt;Boundary&amp;gt;&amp;gt;&lt;/div&gt;&lt;div&gt;ТарифныйПлан&lt;span style=&quot;color: rgba(0, 0, 0, 0); font-family: monospace; font-size: 0px; font-weight: 400; text-align: start; text-wrap: nowrap; background-color: initial;&quot;&gt;%3CmxGraphModel%3E%3Croot%3E%3CmxCell%20id%3D%220%22%2F%3E%3CmxCell%20id%3D%221%22%20parent%3D%220%22%2F%3E%3CmxCell%20id%3D%222%22%20value%3D%22%26lt%3Bdiv%26gt%3B%26amp%3Blt%3B%26amp%3Blt%3BEntity%26amp%3Bgt%3B%26amp%3Bgt%3B%26lt%3B%2Fdiv%26gt%3B%D0%90%D0%B1%D0%BE%D0%BD%D0%B5%D0%BD%D1%82%22%20style%3D%22swimlane%3BfontStyle%3D1%3Balign%3Dcenter%3BverticalAlign%3Dtop%3BchildLayout%3DstackLayout%3Bhorizontal%3D1%3BstartSize%3D40%3BhorizontalStack%3D0%3BresizeParent%3D1%3BresizeParentMax%3D0%3BresizeLast%3D0%3Bcollapsible%3D1%3BmarginBottom%3D0%3BwhiteSpace%3Dwrap%3Bhtml%3D1%3B%22%20vertex%3D%221%22%20parent%3D%221%22%3E%3CmxGeometry%20x%3D%22310%22%20y%3D%22160%22%20width%3D%22160%22%20height%3D%22110%22%20as%3D%22geometry%22%2F%3E%3C%2FmxCell%3E%3CmxCell%20id%3D%223%22%20value%3D%22%2B%20field%3A%20type%22%20style%3D%22text%3BstrokeColor%3Dnone%3BfillColor%3Dnone%3Balign%3Dleft%3BverticalAlign%3Dtop%3BspacingLeft%3D4%3BspacingRight%3D4%3Boverflow%3Dhidden%3Brotatable%3D0%3Bpoints%3D%5B%5B0%2C0.5%5D%2C%5B1%2C0.5%5D%5D%3BportConstraint%3Deastwest%3BwhiteSpace%3Dwrap%3Bhtml%3D1%3B%22%20vertex%3D%221%22%20parent%3D%222%22%3E%3CmxGeometry%20y%3D%2240%22%20width%3D%22160%22%20height%3D%2226%22%20as%3D%22geometry%22%2F%3E%3C%2FmxCell%3E%3CmxCell%20id%3D%224%22%20value%3D%22%22%20style%3D%22line%3BstrokeWidth%3D1%3BfillColor%3Dnone%3Balign%3Dleft%3BverticalAlign%3Dmiddle%3BspacingTop%3D-1%3BspacingLeft%3D3%3BspacingRight%3D3%3Brotatable%3D0%3BlabelPosition%3Dright%3Bpoints%3D%5B%5D%3BportConstraint%3Deastwest%3BstrokeColor%3Dinherit%3B%22%20vertex%3D%221%22%20parent%3D%222%22%3E%3CmxGeometry%20y%3D%2266%22%20width%3D%22160%22%20height%3D%228%22%20as%3D%22geometry%22%2F%3E%3C%2FmxCell%3E%3CmxCell%20id%3D%225%22%20value%3D%22%2B%20%D0%97%D0%B0%D0%BA%D0%BB%D1%8E%D1%87%D0%B8%D1%82%D1%8C%20%D0%B4%D0%BE%D0%B3%D0%BE%D0%B2%D0%BE%D1%80(type)%3A%20type%22%20style%3D%22text%3BstrokeColor%3Dnone%3BfillColor%3Dnone%3Balign%3Dleft%3BverticalAlign%3Dtop%3BspacingLeft%3D4%3BspacingRight%3D4%3Boverflow%3Dhidden%3Brotatable%3D0%3Bpoints%3D%5B%5B0%2C0.5%5D%2C%5B1%2C0.5%5D%5D%3BportConstraint%3Deastwest%3BwhiteSpace%3Dwrap%3Bhtml%3D1%3B%22%20vertex%3D%221%22%20parent%3D%222%22%3E%3CmxGeometry%20y%3D%2274%22%20width%3D%22160%22%20height%3D%2236%22%20as%3D%22geometry%22%2F%3E%3C%2FmxCell%3E%3C%2Froot%3E%3C%2FmxGraphModel%3E&lt;/span&gt;&lt;/div&gt;" style="swimlane;fontStyle=1;align=center;verticalAlign=top;childLayout=stackLayout;horizontal=1;startSize=40;horizontalStack=0;resizeParent=1;resizeParentMax=0;resizeLast=0;collapsible=1;marginBottom=0;whiteSpace=wrap;html=1;" vertex="1" parent="1">
          <mxGeometry x="593" y="473" width="290" height="80" as="geometry">
            <mxRectangle x="-470" y="50" width="130" height="40" as="alternateBounds" />
          </mxGeometry>
        </mxCell>
        <mxCell id="V-TtBSGZ4l5DKQ4Nvbj8-37" value="&lt;div&gt;&lt;span style=&quot;background-color: initial;&quot;&gt;- стоимость: Currency[1]&lt;/span&gt;&lt;br&gt;&lt;/div&gt;&lt;div&gt;- периодДействия: Integer[1]&lt;br&gt;&lt;/div&gt;" style="text;strokeColor=none;fillColor=none;align=left;verticalAlign=top;spacingLeft=4;spacingRight=4;overflow=hidden;rotatable=0;points=[[0,0.5],[1,0.5]];portConstraint=eastwest;whiteSpace=wrap;html=1;" vertex="1" parent="V-TtBSGZ4l5DKQ4Nvbj8-36">
          <mxGeometry y="40" width="290" height="40" as="geometry" />
        </mxCell>
        <mxCell id="V-TtBSGZ4l5DKQ4Nvbj8-38" value="" style="endArrow=none;html=1;rounded=0;align=center;verticalAlign=top;endFill=0;labelBackgroundColor=none;exitX=1;exitY=0.5;exitDx=0;exitDy=0;entryX=0;entryY=0.5;entryDx=0;entryDy=0;startArrow=classic;startFill=1;" edge="1" parent="1" source="V-TtBSGZ4l5DKQ4Nvbj8-26" target="V-TtBSGZ4l5DKQ4Nvbj8-22">
          <mxGeometry relative="1" as="geometry">
            <mxPoint x="2168" y="734" as="sourcePoint" />
            <mxPoint x="2578" y="733" as="targetPoint" />
          </mxGeometry>
        </mxCell>
        <mxCell id="V-TtBSGZ4l5DKQ4Nvbj8-39" value="1..*" style="resizable=0;html=1;align=left;verticalAlign=top;labelBackgroundColor=none;" connectable="0" vertex="1" parent="V-TtBSGZ4l5DKQ4Nvbj8-38">
          <mxGeometry x="-1" relative="1" as="geometry">
            <mxPoint x="4" y="-1" as="offset" />
          </mxGeometry>
        </mxCell>
        <mxCell id="V-TtBSGZ4l5DKQ4Nvbj8-40" value="" style="resizable=0;html=1;align=right;verticalAlign=bottom;labelBackgroundColor=none;" connectable="0" vertex="1" parent="V-TtBSGZ4l5DKQ4Nvbj8-38">
          <mxGeometry x="1" relative="1" as="geometry">
            <mxPoint x="340" y="-579" as="offset" />
          </mxGeometry>
        </mxCell>
        <mxCell id="V-TtBSGZ4l5DKQ4Nvbj8-41" value="1" style="edgeLabel;html=1;align=center;verticalAlign=middle;resizable=0;points=[];" vertex="1" connectable="0" parent="V-TtBSGZ4l5DKQ4Nvbj8-38">
          <mxGeometry x="0.6" y="1" relative="1" as="geometry">
            <mxPoint x="18" y="13" as="offset" />
          </mxGeometry>
        </mxCell>
        <mxCell id="V-TtBSGZ4l5DKQ4Nvbj8-42" value="&lt;b&gt;Подписывает&lt;/b&gt;" style="edgeLabel;html=1;align=center;verticalAlign=middle;resizable=0;points=[];" vertex="1" connectable="0" parent="V-TtBSGZ4l5DKQ4Nvbj8-38">
          <mxGeometry x="-0.3143" relative="1" as="geometry">
            <mxPoint x="14" y="-13" as="offset" />
          </mxGeometry>
        </mxCell>
        <mxCell id="V-TtBSGZ4l5DKQ4Nvbj8-43" value="" style="endArrow=classic;html=1;rounded=0;align=center;verticalAlign=top;endFill=1;labelBackgroundColor=none;exitX=0.497;exitY=1.016;exitDx=0;exitDy=0;entryX=0.5;entryY=0;entryDx=0;entryDy=0;strokeColor=default;exitPerimeter=0;" edge="1" parent="1" target="V-TtBSGZ4l5DKQ4Nvbj8-25">
          <mxGeometry relative="1" as="geometry">
            <mxPoint x="2037" y="333" as="sourcePoint" />
            <mxPoint x="2038" y="429" as="targetPoint" />
          </mxGeometry>
        </mxCell>
        <mxCell id="V-TtBSGZ4l5DKQ4Nvbj8-44" value="1..*" style="resizable=0;html=1;align=left;verticalAlign=top;labelBackgroundColor=none;" connectable="0" vertex="1" parent="V-TtBSGZ4l5DKQ4Nvbj8-43">
          <mxGeometry x="-1" relative="1" as="geometry">
            <mxPoint x="11" y="76" as="offset" />
          </mxGeometry>
        </mxCell>
        <mxCell id="V-TtBSGZ4l5DKQ4Nvbj8-45" value="" style="resizable=0;html=1;align=right;verticalAlign=bottom;labelBackgroundColor=none;" connectable="0" vertex="1" parent="V-TtBSGZ4l5DKQ4Nvbj8-43">
          <mxGeometry x="1" relative="1" as="geometry" />
        </mxCell>
        <mxCell id="V-TtBSGZ4l5DKQ4Nvbj8-46" value="1" style="edgeLabel;html=1;align=center;verticalAlign=middle;resizable=0;points=[];" vertex="1" connectable="0" parent="V-TtBSGZ4l5DKQ4Nvbj8-43">
          <mxGeometry x="0.6" y="1" relative="1" as="geometry">
            <mxPoint x="19" y="-69" as="offset" />
          </mxGeometry>
        </mxCell>
        <mxCell id="V-TtBSGZ4l5DKQ4Nvbj8-47" value="&lt;b&gt;Создает&lt;/b&gt;" style="edgeLabel;html=1;align=center;verticalAlign=middle;resizable=0;points=[];" vertex="1" connectable="0" parent="V-TtBSGZ4l5DKQ4Nvbj8-43">
          <mxGeometry x="-0.3143" relative="1" as="geometry">
            <mxPoint x="32" y="18" as="offset" />
          </mxGeometry>
        </mxCell>
        <mxCell id="V-TtBSGZ4l5DKQ4Nvbj8-48" value="" style="endArrow=classic;html=1;rounded=0;align=center;verticalAlign=top;endFill=1;labelBackgroundColor=none;exitX=0.497;exitY=1.016;exitDx=0;exitDy=0;entryX=0.5;entryY=0;entryDx=0;entryDy=0;strokeColor=default;exitPerimeter=0;" edge="1" parent="1" target="V-TtBSGZ4l5DKQ4Nvbj8-21">
          <mxGeometry relative="1" as="geometry">
            <mxPoint x="2437.23" y="276" as="sourcePoint" />
            <mxPoint x="2438.23" y="382" as="targetPoint" />
          </mxGeometry>
        </mxCell>
        <mxCell id="V-TtBSGZ4l5DKQ4Nvbj8-49" value="1..*" style="resizable=0;html=1;align=left;verticalAlign=top;labelBackgroundColor=none;" connectable="0" vertex="1" parent="V-TtBSGZ4l5DKQ4Nvbj8-48">
          <mxGeometry x="-1" relative="1" as="geometry">
            <mxPoint x="11" y="143" as="offset" />
          </mxGeometry>
        </mxCell>
        <mxCell id="V-TtBSGZ4l5DKQ4Nvbj8-50" value="" style="resizable=0;html=1;align=right;verticalAlign=bottom;labelBackgroundColor=none;" connectable="0" vertex="1" parent="V-TtBSGZ4l5DKQ4Nvbj8-48">
          <mxGeometry x="1" relative="1" as="geometry" />
        </mxCell>
        <mxCell id="V-TtBSGZ4l5DKQ4Nvbj8-51" value="1" style="edgeLabel;html=1;align=center;verticalAlign=middle;resizable=0;points=[];" vertex="1" connectable="0" parent="V-TtBSGZ4l5DKQ4Nvbj8-48">
          <mxGeometry x="0.6" y="1" relative="1" as="geometry">
            <mxPoint x="19" y="-115" as="offset" />
          </mxGeometry>
        </mxCell>
        <mxCell id="V-TtBSGZ4l5DKQ4Nvbj8-52" value="&lt;b&gt;Обслуживает&lt;/b&gt;" style="edgeLabel;html=1;align=center;verticalAlign=middle;resizable=0;points=[];" vertex="1" connectable="0" parent="V-TtBSGZ4l5DKQ4Nvbj8-48">
          <mxGeometry x="-0.3143" relative="1" as="geometry">
            <mxPoint x="51" y="18" as="offset" />
          </mxGeometry>
        </mxCell>
        <mxCell id="V-TtBSGZ4l5DKQ4Nvbj8-53" value="" style="endArrow=open;html=1;rounded=0;align=center;verticalAlign=bottom;dashed=1;endFill=0;labelBackgroundColor=none;entryX=0.005;entryY=0.104;entryDx=0;entryDy=0;exitX=1;exitY=0.5;exitDx=0;exitDy=0;entryPerimeter=0;" edge="1" parent="1" source="V-TtBSGZ4l5DKQ4Nvbj8-2" target="V-TtBSGZ4l5DKQ4Nvbj8-5">
          <mxGeometry relative="1" as="geometry">
            <mxPoint x="459" y="288.53" as="sourcePoint" />
            <mxPoint x="518" y="288.53" as="targetPoint" />
          </mxGeometry>
        </mxCell>
        <mxCell id="V-TtBSGZ4l5DKQ4Nvbj8-54" value="" style="resizable=0;html=1;align=center;verticalAlign=top;labelBackgroundColor=none;" connectable="0" vertex="1" parent="V-TtBSGZ4l5DKQ4Nvbj8-53">
          <mxGeometry relative="1" as="geometry" />
        </mxCell>
        <mxCell id="V-TtBSGZ4l5DKQ4Nvbj8-55" value="" style="endArrow=open;html=1;rounded=0;align=center;verticalAlign=bottom;dashed=1;endFill=0;labelBackgroundColor=none;exitX=0;exitY=0.25;exitDx=0;exitDy=0;" edge="1" parent="1" source="V-TtBSGZ4l5DKQ4Nvbj8-10">
          <mxGeometry relative="1" as="geometry">
            <mxPoint x="1948" y="264" as="sourcePoint" />
            <mxPoint x="548" y="222" as="targetPoint" />
          </mxGeometry>
        </mxCell>
        <mxCell id="V-TtBSGZ4l5DKQ4Nvbj8-56" value="" style="resizable=0;html=1;align=center;verticalAlign=top;labelBackgroundColor=none;" connectable="0" vertex="1" parent="V-TtBSGZ4l5DKQ4Nvbj8-55">
          <mxGeometry relative="1" as="geometry" />
        </mxCell>
        <mxCell id="V-TtBSGZ4l5DKQ4Nvbj8-57" value="" style="endArrow=open;html=1;rounded=0;align=center;verticalAlign=bottom;dashed=1;endFill=0;labelBackgroundColor=none;entryX=0.008;entryY=0.041;entryDx=0;entryDy=0;exitX=1;exitY=0.5;exitDx=0;exitDy=0;entryPerimeter=0;" edge="1" parent="1" source="V-TtBSGZ4l5DKQ4Nvbj8-4" target="V-TtBSGZ4l5DKQ4Nvbj8-7">
          <mxGeometry relative="1" as="geometry">
            <mxPoint x="1218" y="259.53" as="sourcePoint" />
            <mxPoint x="1280" y="259.53" as="targetPoint" />
          </mxGeometry>
        </mxCell>
        <mxCell id="V-TtBSGZ4l5DKQ4Nvbj8-58" value="" style="resizable=0;html=1;align=center;verticalAlign=top;labelBackgroundColor=none;" connectable="0" vertex="1" parent="V-TtBSGZ4l5DKQ4Nvbj8-57">
          <mxGeometry relative="1" as="geometry" />
        </mxCell>
        <mxCell id="V-TtBSGZ4l5DKQ4Nvbj8-59" value="" style="endArrow=classic;html=1;rounded=0;align=center;verticalAlign=top;endFill=1;labelBackgroundColor=none;exitX=0.494;exitY=1.002;exitDx=0;exitDy=0;entryX=0.482;entryY=0.007;entryDx=0;entryDy=0;exitPerimeter=0;entryPerimeter=0;" edge="1" parent="1" source="V-TtBSGZ4l5DKQ4Nvbj8-13" target="V-TtBSGZ4l5DKQ4Nvbj8-36">
          <mxGeometry relative="1" as="geometry">
            <mxPoint x="2372" y="347" as="sourcePoint" />
            <mxPoint x="2373" y="429" as="targetPoint" />
          </mxGeometry>
        </mxCell>
        <mxCell id="V-TtBSGZ4l5DKQ4Nvbj8-60" value="1..*" style="resizable=0;html=1;align=left;verticalAlign=top;labelBackgroundColor=none;" connectable="0" vertex="1" parent="V-TtBSGZ4l5DKQ4Nvbj8-59">
          <mxGeometry x="-1" relative="1" as="geometry">
            <mxPoint x="-24" y="90" as="offset" />
          </mxGeometry>
        </mxCell>
        <mxCell id="V-TtBSGZ4l5DKQ4Nvbj8-61" value="" style="resizable=0;html=1;align=right;verticalAlign=bottom;labelBackgroundColor=none;" connectable="0" vertex="1" parent="V-TtBSGZ4l5DKQ4Nvbj8-59">
          <mxGeometry x="1" relative="1" as="geometry" />
        </mxCell>
        <mxCell id="V-TtBSGZ4l5DKQ4Nvbj8-62" value="1" style="edgeLabel;html=1;align=center;verticalAlign=middle;resizable=0;points=[];" vertex="1" connectable="0" parent="V-TtBSGZ4l5DKQ4Nvbj8-59">
          <mxGeometry x="0.6" y="1" relative="1" as="geometry">
            <mxPoint x="-16" y="-90" as="offset" />
          </mxGeometry>
        </mxCell>
        <mxCell id="V-TtBSGZ4l5DKQ4Nvbj8-63" value="&lt;b&gt;Утверждает&lt;/b&gt;" style="edgeLabel;html=1;align=center;verticalAlign=middle;resizable=0;points=[];" vertex="1" connectable="0" parent="V-TtBSGZ4l5DKQ4Nvbj8-59">
          <mxGeometry x="-0.3143" relative="1" as="geometry">
            <mxPoint x="-45" y="14" as="offset" />
          </mxGeometry>
        </mxCell>
        <mxCell id="V-TtBSGZ4l5DKQ4Nvbj8-64" value="" style="endArrow=classic;html=1;rounded=0;align=center;verticalAlign=top;endFill=1;labelBackgroundColor=none;entryX=0.5;entryY=0;entryDx=0;entryDy=0;strokeColor=default;" edge="1" parent="1" target="V-TtBSGZ4l5DKQ4Nvbj8-29">
          <mxGeometry relative="1" as="geometry">
            <mxPoint x="1078" y="269" as="sourcePoint" />
            <mxPoint x="2038" y="429" as="targetPoint" />
          </mxGeometry>
        </mxCell>
        <mxCell id="V-TtBSGZ4l5DKQ4Nvbj8-65" value="1..*" style="resizable=0;html=1;align=left;verticalAlign=top;labelBackgroundColor=none;" connectable="0" vertex="1" parent="V-TtBSGZ4l5DKQ4Nvbj8-64">
          <mxGeometry x="-1" relative="1" as="geometry">
            <mxPoint x="10" y="109" as="offset" />
          </mxGeometry>
        </mxCell>
        <mxCell id="V-TtBSGZ4l5DKQ4Nvbj8-66" value="" style="resizable=0;html=1;align=right;verticalAlign=bottom;labelBackgroundColor=none;" connectable="0" vertex="1" parent="V-TtBSGZ4l5DKQ4Nvbj8-64">
          <mxGeometry x="1" relative="1" as="geometry" />
        </mxCell>
        <mxCell id="V-TtBSGZ4l5DKQ4Nvbj8-67" value="1" style="edgeLabel;html=1;align=center;verticalAlign=middle;resizable=0;points=[];" vertex="1" connectable="0" parent="V-TtBSGZ4l5DKQ4Nvbj8-64">
          <mxGeometry x="0.6" y="1" relative="1" as="geometry">
            <mxPoint x="14" y="-102" as="offset" />
          </mxGeometry>
        </mxCell>
        <mxCell id="V-TtBSGZ4l5DKQ4Nvbj8-68" value="&lt;b&gt;Исполняет&lt;/b&gt;" style="edgeLabel;html=1;align=center;verticalAlign=middle;resizable=0;points=[];" vertex="1" connectable="0" parent="V-TtBSGZ4l5DKQ4Nvbj8-64">
          <mxGeometry x="-0.3143" relative="1" as="geometry">
            <mxPoint x="32" y="18" as="offset" />
          </mxGeometry>
        </mxCell>
        <mxCell id="V-TtBSGZ4l5DKQ4Nvbj8-69" value="" style="endArrow=classic;html=1;rounded=0;align=center;verticalAlign=top;endFill=1;labelBackgroundColor=none;exitX=-0.004;exitY=0.35;exitDx=0;exitDy=0;entryX=1;entryY=0.5;entryDx=0;entryDy=0;exitPerimeter=0;" edge="1" parent="1" source="V-TtBSGZ4l5DKQ4Nvbj8-26" target="V-TtBSGZ4l5DKQ4Nvbj8-30">
          <mxGeometry relative="1" as="geometry">
            <mxPoint x="2038" y="659" as="sourcePoint" />
            <mxPoint x="2037" y="580" as="targetPoint" />
          </mxGeometry>
        </mxCell>
        <mxCell id="V-TtBSGZ4l5DKQ4Nvbj8-70" value="1" style="resizable=0;html=1;align=left;verticalAlign=top;labelBackgroundColor=none;" connectable="0" vertex="1" parent="V-TtBSGZ4l5DKQ4Nvbj8-69">
          <mxGeometry x="-1" relative="1" as="geometry">
            <mxPoint x="-19" y="-31" as="offset" />
          </mxGeometry>
        </mxCell>
        <mxCell id="V-TtBSGZ4l5DKQ4Nvbj8-71" value="" style="resizable=0;html=1;align=right;verticalAlign=bottom;labelBackgroundColor=none;" connectable="0" vertex="1" parent="V-TtBSGZ4l5DKQ4Nvbj8-69">
          <mxGeometry x="1" relative="1" as="geometry" />
        </mxCell>
        <mxCell id="V-TtBSGZ4l5DKQ4Nvbj8-72" value="1..*" style="edgeLabel;html=1;align=center;verticalAlign=middle;resizable=0;points=[];" vertex="1" connectable="0" parent="V-TtBSGZ4l5DKQ4Nvbj8-69">
          <mxGeometry x="0.6" y="1" relative="1" as="geometry">
            <mxPoint x="-120" y="-13" as="offset" />
          </mxGeometry>
        </mxCell>
        <mxCell id="V-TtBSGZ4l5DKQ4Nvbj8-73" value="&lt;b&gt;Предоставляет&lt;/b&gt;" style="edgeLabel;html=1;align=center;verticalAlign=middle;resizable=0;points=[];" vertex="1" connectable="0" parent="V-TtBSGZ4l5DKQ4Nvbj8-69">
          <mxGeometry x="-0.3143" relative="1" as="geometry">
            <mxPoint x="-119" y="-21" as="offset" />
          </mxGeometry>
        </mxCell>
        <mxCell id="V-TtBSGZ4l5DKQ4Nvbj8-74" value="" style="endArrow=none;html=1;rounded=0;align=center;verticalAlign=top;endFill=0;labelBackgroundColor=none;entryX=1;entryY=0.5;entryDx=0;entryDy=0;strokeColor=default;exitX=-0.007;exitY=0.838;exitDx=0;exitDy=0;exitPerimeter=0;startArrow=classic;startFill=1;" edge="1" parent="1" source="V-TtBSGZ4l5DKQ4Nvbj8-30" target="V-TtBSGZ4l5DKQ4Nvbj8-36">
          <mxGeometry relative="1" as="geometry">
            <mxPoint x="1088" y="279" as="sourcePoint" />
            <mxPoint x="1088" y="449" as="targetPoint" />
          </mxGeometry>
        </mxCell>
        <mxCell id="V-TtBSGZ4l5DKQ4Nvbj8-75" value="1..*" style="resizable=0;html=1;align=left;verticalAlign=top;labelBackgroundColor=none;" connectable="0" vertex="1" parent="V-TtBSGZ4l5DKQ4Nvbj8-74">
          <mxGeometry x="-1" relative="1" as="geometry">
            <mxPoint x="-18" y="2" as="offset" />
          </mxGeometry>
        </mxCell>
        <mxCell id="V-TtBSGZ4l5DKQ4Nvbj8-76" value="" style="resizable=0;html=1;align=right;verticalAlign=bottom;labelBackgroundColor=none;" connectable="0" vertex="1" parent="V-TtBSGZ4l5DKQ4Nvbj8-74">
          <mxGeometry x="1" relative="1" as="geometry" />
        </mxCell>
        <mxCell id="V-TtBSGZ4l5DKQ4Nvbj8-77" value="1" style="edgeLabel;html=1;align=center;verticalAlign=middle;resizable=0;points=[];" vertex="1" connectable="0" parent="V-TtBSGZ4l5DKQ4Nvbj8-74">
          <mxGeometry x="0.6" y="1" relative="1" as="geometry">
            <mxPoint x="-8" y="15" as="offset" />
          </mxGeometry>
        </mxCell>
        <mxCell id="V-TtBSGZ4l5DKQ4Nvbj8-78" value="&lt;b&gt;Включает&lt;/b&gt;" style="edgeLabel;html=1;align=center;verticalAlign=middle;resizable=0;points=[];" vertex="1" connectable="0" parent="V-TtBSGZ4l5DKQ4Nvbj8-74">
          <mxGeometry x="-0.3143" relative="1" as="geometry">
            <mxPoint x="-7" y="-14" as="offset" />
          </mxGeometry>
        </mxCell>
      </root>
    </mxGraphModel>
  </diagram>
</mxfile>
